# xmcd CD database file
#
# Track frame offsets:
#	150
#	19621
#	38426
#	66633
#	87272
#	111363
#	130535
#	150437
#	172130
#	200067
#	222890
#	246973
#	269336
#	294309
#	311864
#
# Disc length: 4441 seconds
#
# Revision: 0
# Processed by: cddbd v1.5.2PL0 Copyright (c) Steve Scherf et al.
# Submitted via: CDex 1.51
#
DISCID=da11570f
DTITLE=Michel Pepe - Immensite
DYEAR=2010
DGENRE=New Age
TTITLE0=Le Nouvel Arc-En-Ciel
TTITLE1=La Clairiere Feerique
TTITLE2=Emerveillement
TTITLE3=Les Jardins Du Monde
TTITLE4=Fontaines De Beaute
TTITLE5=Le Dome De Lumiere
TTITLE6=Les Mains De Grace
TTITLE7=Union Celeste
TTITLE8=Le Coeur Des Anges
TTITLE9=L'Ascension
TTITLE10=Eternel Enchantement
TTITLE11=Rejouissances
TTITLE12=L'Eclaircie Radieuse
TTITLE13=Doux Elixir
TTITLE14=L'Alpha Et L'Omega
EXTD=YEAR: 2010
EXTT0=
EXTT1=
EXTT2=
EXTT3=
EXTT4=
EXTT5=
EXTT6=
EXTT7=
EXTT8=
EXTT9=
EXTT10=
EXTT11=
EXTT12=
EXTT13=
EXTT14=
PLAYORDER=
